<?xml version="1.0" encoding="utf-8"?>
<!-- Generator: Adobe Illustrator 24.0.1, SVG Export Plug-In . SVG Version: 6.00 Build 0)  -->
<svg version="1.1" id="レイヤー_1" xmlns="http://www.w3.org/2000/svg" xmlns:xlink="http://www.w3.org/1999/xlink" x="0px"
	 y="0px" viewBox="0 0 140 30" style="enable-background:new 0 0 140 30;" xml:space="preserve">
<path d="M0,30h30V0H0V30z M29.1,29.1H0.9l2.9-2.9V3.8L0.9,0.9h28.3l-2.9,2.9v22.5L29.1,29.1z M22.2,20c0.1,0.1,0.1,0.2,0,0.2
	c0,0-0.1,0-0.2-0.1l0,0l0,0c-0.5-1-1-2.1-1.1-2.6s-0.3-1.1-0.3-2.9c0-2-0.5-2.4-2.3-2.5c-2-0.2-2.2,1.1-2.4,1.4
	c-0.2,1.2-0.4,2.2-0.2,2.6c0.3,0.4,0.4,0.6,0.7,1.3c0.6,1.1,1.5,4.2,1.9,6.1c0,0.2,0.1,0.2,0,0.2c0,0-0.1,0-0.2-0.2
	c-0.6-1.4-1.6-3.8-1.9-4.5c-0.5-1.1-1.1-1.4-1.3-1.4l0,0l0,0c-0.2,0-0.8,0.2-1.3,1.4c-0.3,0.8-1.4,3.1-1.9,4.5
	c-0.1,0.2-0.1,0.2-0.2,0.2c0,0,0-0.1,0-0.2c0.4-1.7,1.3-4.9,1.8-6c0.3-0.6,0.4-0.9,0.7-1.3c0.2-0.3,0.1-1.4-0.2-2.6
	c-0.1-0.4-0.3-1.6-2.4-1.4c-1.6,0.1-2.1,0.4-2.2,2.5c0,1.7-0.2,2.4-0.3,2.9c-0.1,0.4-0.5,1.6-1.1,2.6l0,0l0,0
	c-0.1,0.1-0.1,0.1-0.2,0.1c0,0,0-0.1,0-0.2C7.7,19.5,8,18.2,8,17c0-1-0.1-4.1,0-4.7c0.4-0.6,0.2-1.6,1.9-2.1c0,0,1.1-0.3,2.1-0.5
	c0.4-0.1,1.1-0.1,1.4-0.6s0.4-1.8,1-2.5c0.1-0.1,0.1-0.2,0.2-0.3C14.9,6,15,5.9,15,5.9s0.1,0,0.2,0.2c0,0.2,0.1,0.3,0.2,0.3
	C15.9,7,16,8.2,16.4,9c0.2,0.5,0.9,0.5,1.4,0.6c1.1,0.2,2.1,0.5,2.1,0.5c1.7,0.5,1.6,1.4,1.7,2s0,3.9,0,4.7
	C21.5,18.1,21.9,19.4,22.2,20z"/>
<path d="M40.4,16.1l-0.5-1c0.9-0.2,1.7-0.5,2.5-0.9c0.8-0.4,1.7-0.9,2.5-1.4c0.9-0.6,1.5-1,1.8-1.4h-4.7V5.4h5.3V4h-6.8V3h6.8V1.5
	h1.3V3h7v1h-7v1.4h5.4v5.9h-5c1,0.9,2.2,1.6,3.5,2.3c1.3,0.6,2.5,1.1,3.7,1.4L55.7,16c-1.2-0.3-2.4-0.8-3.7-1.6
	c-1.3-0.7-2.4-1.4-3.3-2.2v4.4h-1.2v-4.4c-0.8,0.7-1.8,1.5-3.2,2.2C43,15.2,41.7,15.7,40.4,16.1 M43.3,7.9h4.1V6.3h-4.1V7.9z
	 M47.5,8.7h-4.1v1.6h4.1V8.7z M48.7,7.9h4.2V6.3h-4.2V7.9z M52.9,8.7h-4.2v1.6h4.2V8.7z"/>
<path d="M57.7,15.8l-0.7-0.9c1.9-1.2,3.4-2.4,4.3-3.6l1.1,0.7c-0.5,0.7-1.3,1.4-2.2,2.1C59.3,14.8,58.4,15.4,57.7,15.8 M57.3,4.1v-1
	h6.9V1.6h1.3v1.5h7v1H57.3z M64.2,16.6H62l-0.1-1.1h1.7c0.5,0,0.7-0.2,0.7-0.6v-4.5H59V5.8h11.9v4.6h-5.3v5c0,0.3-0.1,0.6-0.4,0.9
	C64.9,16.5,64.5,16.6,64.2,16.6 M69.7,6.7h-9.4v2.7h9.4V6.7z M72.2,15.6c-0.6-0.3-1.4-0.8-2.4-1.6c-1-0.8-1.8-1.5-2.3-2l1-0.7
	c0.6,0.6,1.3,1.3,2.3,2c0.9,0.7,1.7,1.2,2.2,1.4L72.2,15.6z"/>
<polygon points="74.2,16 74.2,15 81.1,15 81.1,4.3 74.9,4.3 74.9,3.3 88.9,3.3 88.9,4.3 82.5,4.3 82.5,15 89.5,15 89.5,16 "/>
<path d="M91,16.3l-0.3-0.9c2.7-0.6,4.8-1.5,6.3-2.6h-6v-1h7v-1.3h-5.7V9.6H98V8.2h-6.2v-1h3.5l-0.8-1.8h-3.2v-1h2.5l-1-2.1l1.1-0.3
	l1.1,2.4h1.5V1.8h1.2v2.7h2.1V1.8h1.2v2.7h1.6l1.1-2.4l1.2,0.3l-1.1,2.1h2.7v1h-3.4l-0.9,1.8h3.8v1h-6.4v1.4h6v0.9h-6v1.3h7.1v1
	h-6.1c0.8,0.5,1.8,1,3,1.4c1.2,0.5,2.4,0.8,3.5,1l-0.5,1.1c-2.8-0.6-5.1-1.6-7-3v3.4H98v-3.3c-0.8,0.6-1.8,1.2-3.2,1.7
	C93.5,15.7,92.2,16.1,91,16.3 M95.7,5.5l0.8,1.8h4.1l0.8-1.8H95.7z"/>
<path d="M123.1,15.5l-0.8,1c-1.5-0.9-2.9-2.1-4-3.5c-1.2-1.5-2-3-2.6-4.5c-0.5,1.8-1.4,3.4-2.7,4.8c-1.3,1.4-2.9,2.5-4.8,3.2l-0.5-1
	c1.8-0.6,3.3-1.8,4.6-3.4c1.3-1.6,2.1-3.3,2.3-5.1h-6.5V6h6.8V1.8h1.4V6h6.8V7h-6.6c0.4,1.5,1.3,3.1,2.5,4.8
	C120.2,13.4,121.6,14.7,123.1,15.5"/>
<path d="M131.6,16.6h-2.4l-0.2-1.2h2.1c0.2,0,0.4-0.1,0.5-0.2c0.1-0.1,0.2-0.3,0.2-0.4v-3h-7v-1h7V9.2h0.8c0.8-0.3,1.7-0.9,2.8-1.6
	h-7.9v-1h9.6l0.6,0.6c-1.1,1-2.6,1.8-4.5,2.7v0.8h6.9v1h-6.9v3.5c0,0.4-0.1,0.7-0.4,0.9C132.4,16.5,132.1,16.6,131.6,16.6
	 M127.8,4.3c-0.5-0.9-0.9-1.6-1.1-2l1.2-0.3c0.3,0.5,0.8,1.3,1.3,2.4h2.9c-0.2-0.4-0.6-1.2-1.2-2.4l1.1-0.3c0.5,1,1,1.9,1.3,2.7h2.3
	c0.7-1.1,1.1-1.9,1.3-2.5l1.3,0.3c-0.4,0.6-0.8,1.4-1.4,2.2h2.7v2.7h-1.2V5.3h-12.2v1.6h-1.2V4.3H127.8z"/>
<polygon points="41.5,21.2 39.7,21.2 39.7,20.6 44,20.6 44,21.2 42.2,21.2 42.2,26.1 41.5,26.1 "/>
<path d="M45.5,22c1.2,0,1.9,0.9,1.9,2.1c0,1.2-0.7,2.1-1.9,2.1c-1.2,0-1.9-0.9-1.9-2.1C43.6,22.9,44.2,22,45.5,22 M45.5,25.6
	c0.7,0,1.2-0.5,1.2-1.5c0-1-0.5-1.5-1.2-1.5c-0.7,0-1.2,0.5-1.2,1.5C44.2,25,44.8,25.6,45.5,25.6"/>
<polygon points="48.2,20.6 48.9,20.6 48.9,23.8 50.6,22.1 51.5,22.1 49.9,23.5 51.6,26.1 50.8,26.1 49.5,24 48.9,24.6 48.9,26.1 
	48.2,26.1 "/>
<path d="M53.7,26.6c-0.3,0.8-0.6,1.1-1.1,1.1c-0.2,0-0.3,0-0.4-0.1V27c0.1,0,0.2,0.1,0.4,0.1c0.3,0,0.4-0.1,0.5-0.4l0.3-0.7l-1.5-4
	h0.7l1.1,3.3h0l1.1-3.3h0.7L53.7,26.6z"/>
<path d="M57.7,22c1.2,0,1.9,0.9,1.9,2.1c0,1.2-0.7,2.1-1.9,2.1c-1.2,0-1.9-0.9-1.9-2.1C55.8,22.9,56.5,22,57.7,22 M57.7,25.6
	c0.7,0,1.2-0.5,1.2-1.5c0-1-0.5-1.5-1.2-1.5c-0.7,0-1.2,0.5-1.2,1.5C56.5,25,57,25.6,57.7,25.6"/>
<rect x="62.7" y="20.6" width="0.7" height="5.5"/>
<path d="M64.6,22.1h0.6v0.6h0c0.3-0.5,0.7-0.7,1.3-0.7c1,0,1.3,0.6,1.3,1.5v2.6h-0.6v-2.7c0-0.5-0.3-0.8-0.8-0.8
	c-0.8,0-1.2,0.5-1.2,1.3v2.3h-0.6V22.1z"/>
<path d="M69.3,24.8c0,0.6,0.5,0.8,1,0.8c0.4,0,0.9-0.1,0.9-0.6c0-0.5-0.6-0.6-1.3-0.7c-0.6-0.1-1.3-0.4-1.3-1.1
	c0-0.8,0.8-1.1,1.5-1.1c0.9,0,1.5,0.3,1.6,1.3h-0.6c0-0.5-0.5-0.7-0.9-0.7c-0.4,0-0.8,0.1-0.8,0.5c0,0.5,0.7,0.5,1.3,0.7
	c0.6,0.1,1.3,0.4,1.3,1.1c0,0.9-0.9,1.3-1.7,1.3c-0.9,0-1.6-0.4-1.7-1.4H69.3z"/>
<path d="M73.6,22.1h0.8v0.6h-0.8v2.5c0,0.3,0.1,0.4,0.5,0.4h0.3v0.6h-0.5c-0.7,0-0.9-0.1-0.9-0.9v-2.5h-0.7v-0.6H73v-1.2h0.6V22.1z"
	/>
<path d="M75.8,21.4h-0.6v-0.8h0.6V21.4z M75.2,22.1h0.6v4h-0.6V22.1z"/>
<path d="M77.8,22.1h0.8v0.6h-0.8v2.5c0,0.3,0.1,0.4,0.5,0.4h0.3v0.6h-0.5c-0.7,0-0.9-0.1-0.9-0.9v-2.5h-0.7v-0.6h0.7v-1.2h0.6V22.1z
	"/>
<path d="M82.6,26.1H82v-0.6h0c-0.3,0.5-0.7,0.7-1.3,0.7c-1,0-1.3-0.6-1.3-1.5v-2.6H80v2.7c0,0.5,0.3,0.8,0.8,0.8
	c0.8,0,1.2-0.5,1.2-1.3v-2.3h0.6V26.1z"/>
<path d="M84.5,22.1h0.8v0.6h-0.8v2.5c0,0.3,0.1,0.4,0.5,0.4h0.3v0.6h-0.5c-0.7,0-0.9-0.1-0.9-0.9v-2.5h-0.7v-0.6h0.7v-1.2h0.6V22.1z
	"/>
<path d="M89.4,24.8c-0.2,0.9-0.8,1.4-1.7,1.4c-1.2,0-1.8-0.9-1.9-2.1c0-1.2,0.8-2.1,1.8-2.1c1.4,0,1.8,1.3,1.8,2.3h-2.9
	c0,0.7,0.4,1.3,1.2,1.3c0.5,0,0.9-0.3,1-0.8H89.4z M88.8,23.7c0-0.6-0.5-1.1-1.1-1.1c-0.7,0-1.1,0.5-1.1,1.1H88.8z"/>
<path d="M94.1,22c1.2,0,1.9,0.9,1.9,2.1c0,1.2-0.7,2.1-1.9,2.1c-1.2,0-1.9-0.9-1.9-2.1C92.2,22.9,92.8,22,94.1,22 M94.1,25.6
	c0.7,0,1.2-0.5,1.2-1.5c0-1-0.5-1.5-1.2-1.5c-0.7,0-1.2,0.5-1.2,1.5C92.8,25,93.4,25.6,94.1,25.6"/>
<path d="M97,22.7h-0.7v-0.6H97v-0.6c0-0.6,0.4-1,1.1-1c0.1,0,0.3,0,0.4,0.1v0.6c-0.1,0-0.2-0.1-0.4-0.1c-0.3,0-0.5,0.1-0.5,0.4v0.6
	h0.8v0.6h-0.8v3.4H97V22.7z"/>
<polygon points="102.6,21.2 100.8,21.2 100.8,20.6 105.1,20.6 105.1,21.2 103.3,21.2 103.3,26.1 102.6,26.1 "/>
<path d="M108.1,24.8c-0.2,0.9-0.8,1.4-1.7,1.4c-1.2,0-1.8-0.9-1.9-2.1c0-1.2,0.8-2.1,1.8-2.1c1.4,0,1.8,1.3,1.8,2.3h-2.9
	c0,0.7,0.4,1.3,1.2,1.3c0.5,0,0.9-0.3,1-0.8H108.1z M107.5,23.7c0-0.6-0.5-1.1-1.1-1.1c-0.7,0-1.1,0.5-1.1,1.1H107.5z"/>
<path d="M111.6,23.4c-0.1-0.5-0.4-0.8-1-0.8c-0.9,0-1.2,0.7-1.2,1.6c0,0.7,0.3,1.5,1.1,1.5c0.6,0,1-0.4,1.1-1h0.7
	c-0.1,1-0.7,1.6-1.7,1.6c-1.2,0-1.8-0.8-1.8-2c0-1.2,0.6-2.1,1.8-2.1c0.9,0,1.6,0.4,1.7,1.4H111.6z"/>
<path d="M113.1,20.6h0.6v2.1h0c0.2-0.5,0.8-0.7,1.2-0.7c1,0,1.3,0.6,1.3,1.5v2.6h-0.6v-2.7c0-0.5-0.3-0.8-0.8-0.8
	c-0.8,0-1.2,0.5-1.2,1.3v2.3h-0.6V20.6z"/>
<path d="M117.3,22.1h0.6v0.6h0c0.3-0.5,0.7-0.7,1.3-0.7c1,0,1.3,0.6,1.3,1.5v2.6h-0.6v-2.7c0-0.5-0.3-0.8-0.8-0.8
	c-0.8,0-1.2,0.5-1.2,1.3v2.3h-0.6V22.1z"/>
<path d="M123.3,22c1.2,0,1.9,0.9,1.9,2.1c0,1.2-0.7,2.1-1.9,2.1c-1.2,0-1.9-0.9-1.9-2.1C121.4,22.9,122,22,123.3,22 M123.3,25.6
	c0.7,0,1.2-0.5,1.2-1.5c0-1-0.5-1.5-1.2-1.5c-0.7,0-1.2,0.5-1.2,1.5C122.1,25,122.6,25.6,123.3,25.6"/>
<rect x="126" y="20.6" width="0.6" height="5.5"/>
<path d="M129.4,22c1.2,0,1.9,0.9,1.9,2.1c0,1.2-0.7,2.1-1.9,2.1c-1.2,0-1.9-0.9-1.9-2.1C127.5,22.9,128.2,22,129.4,22 M129.4,25.6
	c0.7,0,1.2-0.5,1.2-1.5c0-1-0.5-1.5-1.2-1.5c-0.7,0-1.2,0.5-1.2,1.5C128.2,25,128.8,25.6,129.4,25.6"/>
<path d="M135.5,25.7c0,1.3-0.6,2-1.8,2c-0.7,0-1.6-0.3-1.6-1.2h0.6c0,0.5,0.6,0.6,1,0.6c0.8,0,1.2-0.6,1.2-1.5v-0.3h0
	c-0.2,0.5-0.7,0.7-1.2,0.7c-1.2,0-1.7-0.9-1.7-2c0-0.9,0.5-2.1,1.8-2.1c0.5,0,0.9,0.2,1.2,0.7h0v-0.6h0.6V25.7z M134.9,24
	c0-0.7-0.3-1.4-1.1-1.4c-0.8,0-1.2,0.7-1.2,1.5c0,0.7,0.3,1.5,1.1,1.5C134.6,25.5,134.9,24.7,134.9,24"/>
<path d="M138.1,26.6c-0.3,0.8-0.6,1.1-1.1,1.1c-0.2,0-0.3,0-0.4-0.1V27c0.1,0,0.2,0.1,0.4,0.1c0.3,0,0.4-0.1,0.5-0.4l0.3-0.7l-1.5-4
	h0.7l1.1,3.3h0l1.1-3.3h0.7L138.1,26.6z"/>
</svg>
