<?xml version="1.0" encoding="utf-8"?>
<!-- Generator: Adobe Illustrator 18.0.0, SVG Export Plug-In . SVG Version: 6.00 Build 0)  -->
<!DOCTYPE svg PUBLIC "-//W3C//DTD SVG 1.1//EN" "http://www.w3.org/Graphics/SVG/1.1/DTD/svg11.dtd">
<svg version="1.1" id="レイヤー_1" xmlns="http://www.w3.org/2000/svg" xmlns:xlink="http://www.w3.org/1999/xlink" x="0px"
	 y="0px" viewBox="0 0 128 30" enable-background="new 0 0 128 30" xml:space="preserve">
<polygon points="49.5,9.5 45.5,9.5 45.5,22 43.9,22 43.9,9.5 39.9,9.5 39.9,8.2 49.5,8.2 "/>
<path d="M58.3,16.9c0,3.6-2.4,5.3-4.6,5.3c-2.5,0-4.5-1.9-4.5-5.1c0-3.4,2.1-5.3,4.6-5.3C56.5,11.9,58.3,14,58.3,16.9 M53.7,13.1
	c-2.1,0-3.1,2.1-3.1,4c0,2.2,1.2,3.9,3,3.9s3.1-1.7,3.1-4C56.7,15.3,55.9,13.1,53.7,13.1"/>
<path d="M68.2,22h-1.8l-3.5-4.9L62,18.2V22h-1.5V7.5H62v9.2l0,0c0.2-0.4,0.6-0.8,0.9-1.2l3-3.5h1.8L64,16L68.2,22z"/>
<path d="M77.3,12.1l-2.6,7c-1.2,3.2-2,5.1-3.3,6.2c-0.9,0.8-1.6,1.1-2,1.2L69,25.3c2.3-0.9,3.2-3.4,3.2-3.6c0-0.1,0-0.2-0.1-0.4
	l-3.5-9.1h1.6l2.1,5.9c0.3,0.7,0.5,1.4,0.7,2.1h0.1c0.2-0.6,0.4-1.3,0.7-2.1l2-5.9L77.3,12.1L77.3,12.1z"/>
<path d="M87.4,16.9c0,3.6-2.4,5.3-4.6,5.3c-2.5,0-4.5-1.9-4.5-5.1c0-3.4,2.1-5.3,4.6-5.3C85.6,11.9,87.4,14,87.4,16.9 M82.9,13.1
	c-2.1,0-3.1,2.1-3.1,4c0,2.2,1.2,3.9,3,3.9s3.1-1.7,3.1-4C85.9,15.3,85,13.1,82.9,13.1"/>
<polygon points="100.8,9.5 96.8,9.5 96.8,22 95.3,22 95.3,9.5 91.2,9.5 91.2,8.2 100.8,8.2 "/>
<path d="M107.8,21.5c-0.6,0.3-1.6,0.6-3.1,0.6c-2.9,0-4.6-2-4.6-5c0-3.1,1.7-5.3,4.4-5.3c3.1,0,3.8,2.8,3.8,4.5c0,0.4,0,0.6,0,0.9
	h-6.7c0,2.7,1.5,3.7,3.4,3.7c1.2,0,2-0.3,2.6-0.5L107.8,21.5z M106.9,16.1c0-1.3-0.6-3.1-2.5-3.1c-1.8,0-2.6,1.7-2.8,3.1H106.9z"/>
<path d="M117.6,21.6c-0.5,0.2-1.4,0.6-2.7,0.6c-2.8,0-4.7-2-4.7-5c0-3.1,2-5.3,5.1-5.3c1.2,0,2,0.3,2.4,0.5l-0.4,1.2
	c-0.4-0.2-1.1-0.5-2-0.5c-2.3,0-3.5,1.8-3.5,3.9c0,2.4,1.4,3.9,3.5,3.9c1,0,1.6-0.3,2.1-0.5L117.6,21.6z"/>
<path d="M128,22h-1.5v-5.9c0-1.6-0.6-3-2.3-3c-1.2,0-2.6,1-2.6,2.8v6H120V7.5h1.5v6.1l0,0c0.7-1.1,1.8-1.7,3.1-1.7
	c1.2,0,3.3,0.8,3.3,4.1L128,22L128,22z"/>
<path d="M0,30h30V0H0V30z M29.1,29.1H0.9l2.9-2.9V3.8L0.9,0.9h28.3l-2.9,2.9v22.5L29.1,29.1z M22.2,20c0.1,0.1,0.1,0.2,0,0.2
	c0,0-0.1,0-0.2-0.1l0,0l0,0c-0.5-1-1-2.1-1.1-2.6c-0.1-0.5-0.3-1.1-0.3-2.9c0-2-0.5-2.4-2.3-2.5c-2-0.2-2.2,1.1-2.4,1.4
	c-0.2,1.2-0.4,2.2-0.2,2.6c0.3,0.4,0.4,0.6,0.7,1.3c0.6,1.1,1.5,4.2,1.9,6.1c0,0.2,0.1,0.2,0,0.2c0,0-0.1,0-0.2-0.2
	c-0.6-1.4-1.6-3.8-1.9-4.5c-0.5-1.1-1.1-1.4-1.3-1.4l0,0l0,0c-0.2,0-0.8,0.2-1.3,1.4c-0.3,0.8-1.4,3.1-1.9,4.5
	c-0.1,0.2-0.1,0.2-0.2,0.2c0,0,0-0.1,0-0.2c0.4-1.7,1.3-4.9,1.8-6c0.3-0.6,0.4-0.9,0.7-1.3c0.2-0.3,0.1-1.4-0.2-2.6
	c-0.1-0.4-0.3-1.6-2.4-1.4c-1.6,0.1-2.1,0.4-2.2,2.5c0,1.7-0.2,2.4-0.3,2.9c-0.1,0.4-0.5,1.6-1.1,2.6l0,0l0,0
	c-0.1,0.1-0.1,0.1-0.2,0.1c0,0,0-0.1,0-0.2C7.7,19.5,8,18.2,8,17c0-1-0.1-4.1,0-4.7c0.4-0.6,0.2-1.6,1.9-2.1c0,0,1.1-0.3,2.1-0.5
	c0.4-0.1,1.1-0.1,1.4-0.6s0.4-1.8,1-2.5c0.1-0.1,0.1-0.2,0.2-0.3C14.9,6,15,5.9,15,5.9s0.1,0,0.2,0.2c0,0.2,0.1,0.3,0.2,0.3
	c0.5,0.6,0.6,1.8,1,2.6c0.2,0.5,0.9,0.5,1.4,0.6c1.1,0.2,2.1,0.5,2.1,0.5c1.7,0.5,1.6,1.4,1.7,2c0.1,0.6,0,3.9,0,4.7
	C21.5,18.1,21.9,19.4,22.2,20z"/>
</svg>
